<svg width="561" height="154" viewBox="0 0 561 154" fill="none" xmlns="http://www.w3.org/2000/svg">
<rect opacity="0.8" width="88" height="85" rx="20" fill="#FE5252"/>
<rect opacity="0.8" x="59" y="69" width="88" height="85" rx="20" fill="#1B2939"/>
<rect opacity="0.8" x="11" y="15" width="124" height="124" rx="20" fill="#788AA3"/>
<path d="M201.42 62.12C197.14 62.12 193.86 63.46 191.58 66.14C189.34 68.78 188.22 72.46 188.22 77.18C188.22 79.42 188.48 81.48 189 83.36C189.56 85.2 190.36 86.78 191.4 88.1C192.48 89.42 193.8 90.46 195.36 91.22C196.96 91.94 198.82 92.3 200.94 92.3C202.26 92.3 203.4 92.26 204.36 92.18C205.32 92.06 206.08 91.92 206.64 91.76V76.82H214.2V96.8C213.16 97.2 211.4 97.64 208.92 98.12C206.44 98.6 203.58 98.84 200.34 98.84C197.34 98.84 194.6 98.36 192.12 97.4C189.64 96.44 187.52 95.04 185.76 93.2C184.04 91.36 182.7 89.1 181.74 86.42C180.78 83.74 180.3 80.66 180.3 77.18C180.3 73.7 180.82 70.62 181.86 67.94C182.94 65.26 184.4 63 186.24 61.16C188.08 59.28 190.24 57.86 192.72 56.9C195.2 55.94 197.84 55.46 200.64 55.46C202.56 55.46 204.26 55.6 205.74 55.88C207.26 56.12 208.56 56.4 209.64 56.72C210.72 57.04 211.6 57.38 212.28 57.74C213 58.1 213.5 58.36 213.78 58.52L211.5 64.7C210.3 63.98 208.8 63.38 207 62.9C205.24 62.38 203.38 62.12 201.42 62.12ZM250.537 98C249.977 96.36 249.397 94.74 248.797 93.14C248.197 91.54 247.617 89.9 247.057 88.22H229.537C228.977 89.9 228.397 91.56 227.797 93.2C227.237 94.8 226.677 96.4 226.117 98H218.257C219.817 93.56 221.297 89.46 222.697 85.7C224.097 81.94 225.457 78.38 226.777 75.02C228.137 71.66 229.477 68.46 230.797 65.42C232.117 62.38 233.477 59.38 234.877 56.42H242.017C243.417 59.38 244.777 62.38 246.097 65.42C247.417 68.46 248.737 71.66 250.057 75.02C251.417 78.38 252.797 81.94 254.197 85.7C255.637 89.46 257.137 93.56 258.697 98H250.537ZM238.297 64.46C237.377 66.58 236.317 69.16 235.117 72.2C233.957 75.24 232.737 78.54 231.457 82.1H245.137C243.857 78.54 242.617 75.22 241.417 72.14C240.217 69.06 239.177 66.5 238.297 64.46ZM273.013 56.42C273.893 57.94 274.873 59.8 275.953 62C277.033 64.2 278.133 66.52 279.253 68.96C280.373 71.36 281.473 73.82 282.553 76.34C283.673 78.82 284.693 81.12 285.613 83.24C286.533 81.12 287.533 78.82 288.613 76.34C289.693 73.82 290.793 71.36 291.913 68.96C293.033 66.52 294.133 64.2 295.213 62C296.293 59.8 297.273 57.94 298.153 56.42H304.993C305.353 59.46 305.693 62.7 306.013 66.14C306.333 69.54 306.613 73.04 306.853 76.64C307.133 80.2 307.373 83.8 307.573 87.44C307.813 91.04 308.013 94.56 308.173 98H300.733C300.573 93.16 300.373 88.18 300.133 83.06C299.933 77.94 299.613 72.98 299.173 68.18C298.733 69.1 298.213 70.2 297.613 71.48C297.013 72.76 296.373 74.16 295.693 75.68C295.013 77.16 294.313 78.7 293.593 80.3C292.913 81.9 292.233 83.46 291.553 84.98C290.913 86.46 290.313 87.86 289.753 89.18C289.193 90.46 288.713 91.56 288.313 92.48H282.673C282.273 91.56 281.793 90.44 281.233 89.12C280.673 87.8 280.053 86.4 279.373 84.92C278.733 83.4 278.053 81.84 277.333 80.24C276.653 78.64 275.973 77.1 275.293 75.62C274.613 74.14 273.973 72.76 273.373 71.48C272.773 70.16 272.253 69.06 271.813 68.18C271.373 72.98 271.033 77.94 270.793 83.06C270.593 88.18 270.413 93.16 270.253 98H262.813C262.973 94.56 263.153 91 263.353 87.32C263.593 83.64 263.833 80 264.073 76.4C264.353 72.76 264.653 69.24 264.973 65.84C265.293 62.44 265.633 59.3 265.993 56.42H273.013ZM316.98 98V56.42H343.68V62.84H324.54V73.1H341.58V79.4H324.54V91.58H345.12V98H316.98ZM362.216 92.36C364.936 92.36 366.916 91.9 368.156 90.98C369.396 90.06 370.016 88.76 370.016 87.08C370.016 86.08 369.796 85.22 369.356 84.5C368.956 83.78 368.356 83.14 367.556 82.58C366.796 81.98 365.856 81.44 364.736 80.96C363.616 80.44 362.336 79.94 360.896 79.46C359.456 78.94 358.056 78.38 356.696 77.78C355.376 77.14 354.196 76.36 353.156 75.44C352.156 74.52 351.336 73.42 350.696 72.14C350.096 70.86 349.796 69.32 349.796 67.52C349.796 63.76 351.096 60.82 353.696 58.7C356.296 56.54 359.836 55.46 364.316 55.46C366.916 55.46 369.216 55.76 371.216 56.36C373.256 56.92 374.856 57.54 376.016 58.22L373.676 64.34C372.316 63.58 370.816 63 369.176 62.6C367.576 62.2 365.916 62 364.196 62C362.156 62 360.556 62.42 359.396 63.26C358.276 64.1 357.716 65.28 357.716 66.8C357.716 67.72 357.896 68.52 358.256 69.2C358.656 69.84 359.196 70.42 359.876 70.94C360.596 71.46 361.416 71.94 362.336 72.38C363.296 72.82 364.336 73.24 365.456 73.64C367.416 74.36 369.156 75.1 370.676 75.86C372.236 76.58 373.536 77.46 374.576 78.5C375.656 79.5 376.476 80.7 377.036 82.1C377.596 83.46 377.876 85.12 377.876 87.08C377.876 90.84 376.536 93.76 373.856 95.84C371.216 97.88 367.336 98.9 362.216 98.9C360.496 98.9 358.916 98.78 357.476 98.54C356.076 98.34 354.816 98.08 353.696 97.76C352.616 97.44 351.676 97.12 350.876 96.8C350.076 96.44 349.436 96.12 348.956 95.84L351.176 89.66C352.256 90.26 353.716 90.86 355.556 91.46C357.396 92.06 359.616 92.36 362.216 92.36ZM413.519 56.42V62.96H400.739V98H393.119V62.96H380.339V56.42H413.519ZM424 77.18C424 79.46 424.28 81.54 424.84 83.42C425.4 85.26 426.2 86.84 427.24 88.16C428.32 89.44 429.62 90.44 431.14 91.16C432.66 91.88 434.38 92.24 436.3 92.24C438.18 92.24 439.88 91.88 441.4 91.16C442.92 90.44 444.2 89.44 445.24 88.16C446.32 86.84 447.14 85.26 447.7 83.42C448.26 81.54 448.54 79.46 448.54 77.18C448.54 74.9 448.26 72.84 447.7 71C447.14 69.12 446.32 67.54 445.24 66.26C444.2 64.94 442.92 63.92 441.4 63.2C439.88 62.48 438.18 62.12 436.3 62.12C434.38 62.12 432.66 62.48 431.14 63.2C429.62 63.92 428.32 64.94 427.24 66.26C426.2 67.58 425.4 69.16 424.84 71C424.28 72.84 424 74.9 424 77.18ZM456.46 77.18C456.46 80.74 455.92 83.88 454.84 86.6C453.8 89.32 452.36 91.6 450.52 93.44C448.72 95.24 446.6 96.6 444.16 97.52C441.72 98.44 439.12 98.9 436.36 98.9C433.6 98.9 430.98 98.44 428.5 97.52C426.06 96.6 423.92 95.24 422.08 93.44C420.28 91.6 418.84 89.32 417.76 86.6C416.68 83.88 416.14 80.74 416.14 77.18C416.14 73.62 416.68 70.5 417.76 67.82C418.84 65.1 420.3 62.82 422.14 60.98C424.02 59.14 426.18 57.76 428.62 56.84C431.06 55.92 433.64 55.46 436.36 55.46C439.08 55.46 441.66 55.92 444.1 56.84C446.54 57.76 448.66 59.14 450.46 60.98C452.3 62.82 453.76 65.1 454.84 67.82C455.92 70.5 456.46 73.62 456.46 77.18ZM476.213 56C482.213 56 486.793 57.1 489.953 59.3C493.153 61.5 494.753 64.86 494.753 69.38C494.753 75.02 491.973 78.84 486.413 80.84C487.173 81.76 488.033 82.88 488.993 84.2C489.953 85.52 490.933 86.96 491.933 88.52C492.933 90.04 493.893 91.62 494.813 93.26C495.733 94.86 496.553 96.44 497.273 98H488.813C488.053 96.56 487.233 95.12 486.353 93.68C485.473 92.2 484.573 90.78 483.653 89.42C482.773 88.02 481.893 86.72 481.013 85.52C480.133 84.28 479.313 83.18 478.553 82.22C477.993 82.26 477.513 82.28 477.113 82.28C476.713 82.28 476.333 82.28 475.973 82.28H472.313V98H464.753V57.02C466.593 56.62 468.553 56.36 470.633 56.24C472.713 56.08 474.573 56 476.213 56ZM476.753 62.54C475.153 62.54 473.673 62.6 472.313 62.72V76.16H475.613C477.453 76.16 479.073 76.06 480.473 75.86C481.873 75.66 483.033 75.3 483.953 74.78C484.913 74.26 485.633 73.56 486.113 72.68C486.593 71.8 486.833 70.68 486.833 69.32C486.833 68.04 486.593 66.96 486.113 66.08C485.633 65.2 484.933 64.5 484.013 63.98C483.133 63.46 482.073 63.1 480.833 62.9C479.593 62.66 478.233 62.54 476.753 62.54ZM503.132 98V56.42H529.832V62.84H510.692V73.1H527.732V79.4H510.692V91.58H531.272V98H503.132Z" fill="#1B2939"/>
</svg>
