<svg version="1.2" xmlns="http://www.w3.org/2000/svg" viewBox="0 0 561 154" width="561" height="154">
	<title>Logo</title>
	<style>
		.s0 { opacity: .8;fill: #fe5252 } 
		.s1 { opacity: .8;fill: #1b2939 } 
		.s2 { opacity: .8;fill: #788aa3 } 
		.s3 { fill: #c1cdda } 
	</style>
	<path fill-rule="evenodd" class="s0" d="m20 0h48c11 0 20 9 20 20v45c0 11-9 20-20 20h-48c-11 0-20-9-20-20v-45c0-11 9-20 20-20z"/>
	<path fill-rule="evenodd" class="s1" d="m79 69h48c11 0 20 9 20 20v45c0 11-9 20-20 20h-48c-11 0-20-9-20-20v-45c0-11 9-20 20-20z"/>
	<path fill-rule="evenodd" class="s2" d="m31 15h84c11 0 20 9 20 20v84c0 11-9 20-20 20h-84c-11 0-20-9-20-20v-84c0-11 9-20 20-20z"/>
	<path class="s3" d="m201.4 62.1q-6.4 0-9.8 4-3.4 4-3.4 11.1 0 3.3 0.8 6.2 0.8 2.7 2.4 4.7 1.6 2 4 3.1 2.4 1.1 5.5 1.1 2 0 3.5-0.1 1.4-0.2 2.2-0.4v-15h7.6v20q-1.6 0.6-5.3 1.3-3.7 0.7-8.6 0.7-4.5 0-8.2-1.4-3.7-1.4-6.3-4.2-2.6-2.8-4.1-6.8-1.4-4-1.4-9.2 0-5.2 1.6-9.3 1.6-4 4.3-6.7 2.8-2.9 6.5-4.3 3.7-1.4 7.9-1.4 2.9 0 5.1 0.4 2.3 0.3 3.9 0.8 1.7 0.5 2.7 1 1.1 0.6 1.5 0.8l-2.3 6.2q-1.8-1.1-4.5-1.8-2.6-0.8-5.6-0.8zm49.1 35.9q-0.8-2.5-1.7-4.9-0.9-2.4-1.7-4.9h-17.6q-0.8 2.5-1.7 5-0.8 2.4-1.7 4.8h-7.8q2.3-6.7 4.4-12.3 2.1-5.6 4.1-10.7 2-5 4-9.6 2-4.5 4.1-9h7.1q2.1 4.5 4.1 9 2 4.6 4 9.6 2 5.1 4.1 10.7 2.2 5.6 4.5 12.3zm-12.2-33.5q-1.4 3.1-3.2 7.7-1.8 4.6-3.7 9.9h13.7q-1.9-5.3-3.7-10-1.8-4.6-3.1-7.6zm34.7-8.1q1.3 2.3 2.9 5.6 1.6 3.3 3.3 7 1.7 3.6 3.3 7.3 1.7 3.8 3.1 6.9 1.4-3.1 3-6.9 1.6-3.7 3.3-7.3 1.7-3.7 3.3-7 1.6-3.3 2.9-5.6h6.9q0.5 4.6 1 9.7 0.5 5.1 0.8 10.5 0.4 5.4 0.7 10.8 0.4 5.4 0.6 10.6h-7.4q-0.2-7.3-0.6-14.9-0.3-7.7-1-14.9-0.6 1.4-1.5 3.3-0.9 1.9-1.9 4.2-1.1 2.2-2.1 4.6-1.1 2.4-2.1 4.7-0.9 2.2-1.8 4.2-0.8 1.9-1.4 3.3h-5.7q-0.6-1.4-1.4-3.4-0.8-2-1.9-4.2-0.9-2.3-2-4.7-1-2.4-2-4.6-1.1-2.2-2-4.1-0.9-2-1.5-3.3-0.7 7.2-1 14.9-0.3 7.6-0.6 14.9h-7.4q0.2-5.2 0.5-10.7 0.4-5.5 0.7-10.9 0.5-5.5 0.9-10.6 0.5-5.1 1.1-9.4zm43.9 41.6v-41.6h26.7v6.4h-19.1v10.3h17v6.3h-17v12.2h20.6v6.4zm45.2-5.6q4.1 0 5.9-1.4 1.9-1.4 1.9-3.9 0-1.5-0.7-2.6-0.6-1.1-1.8-1.9-1.1-0.9-2.8-1.6-1.7-0.8-3.8-1.5-2.2-0.8-4.2-1.7-2-1-3.6-2.4-1.5-1.3-2.4-3.3-0.9-1.9-0.9-4.6 0-5.6 3.9-8.8 3.9-3.2 10.6-3.2 3.9 0 6.9 0.9 3.1 0.8 4.8 1.8l-2.3 6.1q-2.1-1.1-4.5-1.7-2.4-0.6-5-0.6-3.1 0-4.8 1.3-1.7 1.2-1.7 3.5 0 1.4 0.5 2.4 0.6 1 1.7 1.7 1 0.8 2.4 1.5 1.5 0.6 3.1 1.2 3 1.1 5.3 2.3 2.3 1 3.9 2.6 1.6 1.5 2.4 3.6 0.9 2 0.9 5 0 5.6-4.1 8.7-3.9 3.1-11.6 3.1-2.6 0-4.7-0.4-2.1-0.3-3.8-0.7-1.6-0.5-2.8-1-1.2-0.5-2-1l2.3-6.1q1.6 0.9 4.3 1.8 2.8 0.9 6.7 0.9zm51.3-36v6.6h-12.8v35h-7.6v-35h-12.8v-6.6zm43 20.8q0 5.3-1.7 9.4-1.5 4.1-4.3 6.8-2.7 2.7-6.3 4.1-3.7 1.4-7.8 1.4-4.2 0-7.9-1.4-3.7-1.4-6.4-4.1-2.7-2.7-4.3-6.8-1.7-4.1-1.7-9.4 0-5.4 1.7-9.4 1.6-4.1 4.3-6.8 2.9-2.8 6.5-4.2 3.7-1.3 7.8-1.3 4 0 7.7 1.3 3.7 1.4 6.4 4.2 2.7 2.7 4.3 6.8 1.7 4 1.7 9.4zm-32.5 0q0 3.4 0.8 6.2 0.9 2.8 2.4 4.8 1.7 1.9 3.9 3 2.3 1 5.2 1 2.8 0 5.1-1 2.3-1.1 3.8-3 1.7-2 2.5-4.8 0.8-2.8 0.8-6.2 0-3.4-0.8-6.2-0.8-2.8-2.5-4.7-1.5-2-3.8-3.1-2.3-1.1-5.1-1.1-2.9 0-5.2 1.1-2.2 1.1-3.9 3.1-1.5 1.9-2.4 4.7-0.8 2.8-0.8 6.2zm52.2-21.2q9 0 13.8 3.3 4.8 3.3 4.8 10.1 0 8.4-8.4 11.4 1.2 1.4 2.6 3.4 1.4 2 2.9 4.3 1.5 2.3 2.9 4.8 1.4 2.4 2.5 4.7h-8.5q-1.1-2.2-2.4-4.3-1.4-2.2-2.7-4.3-1.4-2.1-2.7-3.9-1.3-1.8-2.4-3.3-0.9 0.1-1.5 0.1-0.6 0-1.1 0h-3.7v15.7h-7.5v-41q2.7-0.6 5.8-0.8 3.2-0.2 5.6-0.2zm0.6 6.5q-2.4 0-4.5 0.2v13.5h3.3q2.8 0 4.9-0.3 2.1-0.3 3.5-1.1 1.4-0.8 2.1-2.1 0.7-1.3 0.7-3.4 0-1.9-0.7-3.2-0.7-1.3-2.1-2.1-1.3-0.8-3.2-1.1-1.8-0.4-4-0.4zm26.3 35.5v-41.6h26.7v6.4h-19.1v10.3h17v6.3h-17v12.2h20.6v6.4z"/>
</svg>