<svg width="205" height="69" viewBox="0 0 205 69" fill="none" xmlns="http://www.w3.org/2000/svg">
<path opacity="0.8" d="M31.5152 0H9.26916C4.14994 0 0 4.01199 0 8.96104V29.1234C0 34.0724 4.14994 38.0844 9.26916 38.0844H31.5152C36.6344 38.0844 40.7843 34.0724 40.7843 29.1234V8.96104C40.7843 4.01199 36.6344 0 31.5152 0Z" fill="#FE5252"/>
<path opacity="0.8" d="M58.8591 30.9156H36.6132C31.4939 30.9156 27.344 34.9276 27.344 39.8766V60.039C27.344 64.988 31.4939 69 36.6132 69H58.8591C63.9784 69 68.1283 64.988 68.1283 60.039V39.8766C68.1283 34.9276 63.9784 30.9156 58.8591 30.9156Z" fill="#1B2939"/>
<path opacity="0.8" d="M53.2977 6.72076H14.3672C9.24797 6.72076 5.09802 10.7328 5.09802 15.6818V53.3182C5.09802 58.2672 9.24797 62.2792 14.3672 62.2792H53.2977C58.4169 62.2792 62.5668 58.2672 62.5668 53.3182V15.6818C62.5668 10.7328 58.4169 6.72076 53.2977 6.72076Z" fill="#B9CAE1"/>
<path d="M80.517 44V26.5455H92.2784V29.5881H84.2074V33.7472H91.6733V36.7898H84.2074V40.9574H92.3125V44H80.517ZM98.6726 26.5455L102.192 32.4943H102.329L105.866 26.5455H110.033L104.707 35.2727L110.153 44H105.908L102.329 38.0426H102.192L98.6129 44H94.3857L99.8487 35.2727L94.4879 26.5455H98.6726ZM112.369 44V26.5455H119.255C120.579 26.5455 121.707 26.7983 122.638 27.304C123.57 27.804 124.281 28.5 124.769 29.392C125.263 30.2784 125.511 31.3011 125.511 32.4602C125.511 33.6193 125.261 34.642 124.761 35.5284C124.261 36.4148 123.536 37.1051 122.587 37.5994C121.644 38.0937 120.502 38.3409 119.161 38.3409H114.772V35.3835H118.565C119.275 35.3835 119.86 35.2614 120.32 35.017C120.786 34.767 121.133 34.4233 121.36 33.9858C121.593 33.5426 121.71 33.0341 121.71 32.4602C121.71 31.8807 121.593 31.375 121.36 30.9432C121.133 30.5057 120.786 30.1676 120.32 29.929C119.854 29.6847 119.263 29.5625 118.548 29.5625H116.059V44H112.369ZM127.908 44V26.5455H131.598V40.9574H139.081V44H127.908ZM156.885 35.2727C156.885 37.1761 156.524 38.7955 155.803 40.1307C155.087 41.4659 154.109 42.4858 152.871 43.1903C151.638 43.8892 150.251 44.2386 148.712 44.2386C147.161 44.2386 145.768 43.8864 144.536 43.1818C143.303 42.4773 142.328 41.4574 141.612 40.1222C140.896 38.7869 140.538 37.1705 140.538 35.2727C140.538 33.3693 140.896 31.75 141.612 30.4148C142.328 29.0795 143.303 28.0625 144.536 27.3636C145.768 26.6591 147.161 26.3068 148.712 26.3068C150.251 26.3068 151.638 26.6591 152.871 27.3636C154.109 28.0625 155.087 29.0795 155.803 30.4148C156.524 31.75 156.885 33.3693 156.885 35.2727ZM153.143 35.2727C153.143 34.0398 152.959 33 152.589 32.1534C152.226 31.3068 151.712 30.6648 151.047 30.2273C150.382 29.7898 149.604 29.571 148.712 29.571C147.82 29.571 147.041 29.7898 146.376 30.2273C145.712 30.6648 145.195 31.3068 144.825 32.1534C144.462 33 144.28 34.0398 144.28 35.2727C144.28 36.5057 144.462 37.5455 144.825 38.392C145.195 39.2386 145.712 39.8807 146.376 40.3182C147.041 40.7557 147.82 40.9744 148.712 40.9744C149.604 40.9744 150.382 40.7557 151.047 40.3182C151.712 39.8807 152.226 39.2386 152.589 38.392C152.959 37.5455 153.143 36.5057 153.143 35.2727ZM159.619 44V26.5455H166.505C167.823 26.5455 168.948 26.7812 169.88 27.2528C170.817 27.7187 171.531 28.3807 172.019 29.2386C172.513 30.0909 172.761 31.0937 172.761 32.2472C172.761 33.4062 172.511 34.4034 172.011 35.2386C171.511 36.0682 170.786 36.7045 169.837 37.1477C168.894 37.5909 167.752 37.8125 166.411 37.8125H161.8V34.8466H165.815C166.519 34.8466 167.104 34.75 167.57 34.5568C168.036 34.3636 168.383 34.0739 168.61 33.6875C168.843 33.3011 168.96 32.821 168.96 32.2472C168.96 31.6676 168.843 31.179 168.61 30.7812C168.383 30.3835 168.033 30.0824 167.562 29.8778C167.096 29.6676 166.508 29.5625 165.798 29.5625H163.309V44H159.619ZM169.045 36.0568L173.383 44H169.309L165.065 36.0568H169.045ZM175.369 44V26.5455H187.13V29.5881H179.059V33.7472H186.525V36.7898H179.059V40.9574H187.164V44H175.369ZM190.064 44V26.5455H196.95C198.268 26.5455 199.393 26.7812 200.325 27.2528C201.263 27.7187 201.976 28.3807 202.464 29.2386C202.959 30.0909 203.206 31.0937 203.206 32.2472C203.206 33.4062 202.956 34.4034 202.456 35.2386C201.956 36.0682 201.232 36.7045 200.283 37.1477C199.339 37.5909 198.197 37.8125 196.857 37.8125H192.246V34.8466H196.26C196.964 34.8466 197.55 34.75 198.016 34.5568C198.482 34.3636 198.828 34.0739 199.055 33.6875C199.288 33.3011 199.405 32.821 199.405 32.2472C199.405 31.6676 199.288 31.179 199.055 30.7812C198.828 30.3835 198.479 30.0824 198.007 29.8778C197.541 29.6676 196.953 29.5625 196.243 29.5625H193.754V44H190.064ZM199.49 36.0568L203.828 44H199.754L195.51 36.0568H199.49Z" fill="#FE5252"/>
</svg>
